<svg width="25" height="25" viewBox="0 0 40 40" fill="none" xmlns="http://www.w3.org/2000/svg">
<path d="M18.3333 34.5833C9.36658 34.5833 2.08325 27.3 2.08325 18.3333C2.08325 9.36668 9.36658 2.08334 18.3333 2.08334C27.2999 2.08334 34.5833 9.36668 34.5833 18.3333C34.5833 27.3 27.2999 34.5833 18.3333 34.5833ZM18.3333 4.58334C10.7499 4.58334 4.58325 10.75 4.58325 18.3333C4.58325 25.9167 10.7499 32.0833 18.3333 32.0833C25.9166 32.0833 32.0833 25.9167 32.0833 18.3333C32.0833 10.75 25.9166 4.58334 18.3333 4.58334Z" fill="#E8E8E8"/>
<path d="M33.5999 37.9833C33.4666 37.9833 33.3332 37.9667 33.2166 37.95C32.4332 37.85 31.0166 37.3167 30.2166 34.9333C29.7999 33.6833 29.9499 32.4333 30.6332 31.4833C31.3166 30.5333 32.4666 30 33.7832 30C35.4832 30 36.8166 30.65 37.4166 31.8C38.0166 32.95 37.8499 34.4167 36.8999 35.8333C35.7166 37.6167 34.4332 37.9833 33.5999 37.9833ZM32.5999 34.15C32.8832 35.0167 33.2832 35.45 33.5499 35.4833C33.8166 35.5167 34.3166 35.2 34.8332 34.45C35.3166 33.7333 35.3499 33.2167 35.2332 32.9833C35.1166 32.75 34.6499 32.5 33.7832 32.5C33.2666 32.5 32.8832 32.6667 32.6666 32.95C32.4666 33.2333 32.4332 33.6667 32.5999 34.15Z" fill="#E8E8E8"/>
</svg>
